<svg width="21" height="20" viewBox="0 0 21 20" fill="none" xmlns="http://www.w3.org/2000/svg">
<path d="M10.8485 2.5C6.70628 2.5 3.34848 5.85792 3.34848 10C3.34848 14.1423 6.70628 17.5 10.8485 17.5C14.9907 17.5 18.3485 14.1423 18.3485 10C18.3485 5.85792 14.9907 2.5 10.8485 2.5ZM10.8485 6.25C11.3663 6.25 11.786 6.66977 11.786 7.1875C11.786 7.70547 11.3663 8.125 10.8485 8.125C10.3307 8.125 9.91098 7.70547 9.91098 7.1875C9.91098 6.66977 10.3307 6.25 10.8485 6.25ZM12.2547 13.75H9.44223C9.18336 13.75 8.97348 13.5404 8.97348 13.2812C8.97348 13.0224 9.18336 12.8125 9.44223 12.8125H9.91098V10H9.44223C9.18336 10 8.97348 9.79035 8.97348 9.53125C8.97348 9.27238 9.18336 9.0625 9.44223 9.0625H11.3172C11.5761 9.0625 11.786 9.27238 11.786 9.53125V12.8125H12.2547C12.5136 12.8125 12.7235 13.0224 12.7235 13.2812C12.7235 13.5404 12.5136 13.75 12.2547 13.75Z" fill="#5068A5"/>
<path d="M3.84848 10C3.84848 6.13406 6.98243 3 10.8485 3C14.7145 3 17.8485 6.13406 17.8485 10C17.8485 13.8662 14.7145 17 10.8485 17C6.98242 17 3.84848 13.8662 3.84848 10ZM12.286 7.1875C12.286 6.39364 11.6424 5.75 10.8485 5.75C10.0545 5.75 9.41098 6.39364 9.41098 7.1875C9.41098 7.83527 9.83918 8.38269 10.4279 8.5625H9.44223C8.90722 8.5625 8.47348 8.99624 8.47348 9.53125C8.47348 10.0562 8.89058 10.483 9.41098 10.4995V12.313C8.89043 12.3295 8.47348 12.7567 8.47348 13.2812C8.47348 13.8167 8.90738 14.25 9.44223 14.25H12.2547C12.7896 14.25 13.2235 13.8167 13.2235 13.2812C13.2235 12.7567 12.8065 12.3295 12.286 12.313V9.53125C12.286 8.99624 11.8522 8.5625 11.3172 8.5625H11.2691C11.8578 8.38269 12.286 7.83527 12.286 7.1875Z" stroke="#423FF6" stroke-opacity="0.05"/>
</svg>
