<svg width="15" height="15" viewBox="0 0 15 15" fill="none" xmlns="http://www.w3.org/2000/svg">
<path d="M7.625 3.78125C5.625 3.78125 4.03125 5.40625 4.03125 7.375C4.03125 9.375 5.625 10.9688 7.625 10.9688C9.59375 10.9688 11.2188 9.375 11.2188 7.375C11.2188 5.40625 9.59375 3.78125 7.625 3.78125ZM7.625 9.71875C6.34375 9.71875 5.28125 8.6875 5.28125 7.375C5.28125 6.09375 6.3125 5.0625 7.625 5.0625C8.90625 5.0625 9.9375 6.09375 9.9375 7.375C9.9375 8.6875 8.90625 9.71875 7.625 9.71875ZM12.1875 3.65625C12.1875 3.1875 11.8125 2.8125 11.3438 2.8125C10.875 2.8125 10.5 3.1875 10.5 3.65625C10.5 4.125 10.875 4.5 11.3438 4.5C11.8125 4.5 12.1875 4.125 12.1875 3.65625ZM14.5625 4.5C14.5 3.375 14.25 2.375 13.4375 1.5625C12.625 0.75 11.625 0.5 10.5 0.4375C9.34375 0.375 5.875 0.375 4.71875 0.4375C3.59375 0.5 2.625 0.75 1.78125 1.5625C0.96875 2.375 0.71875 3.375 0.65625 4.5C0.59375 5.65625 0.59375 9.125 0.65625 10.2812C0.71875 11.4062 0.96875 12.375 1.78125 13.2188C2.625 14.0312 3.59375 14.2812 4.71875 14.3438C5.875 14.4062 9.34375 14.4062 10.5 14.3438C11.625 14.2812 12.625 14.0312 13.4375 13.2188C14.25 12.375 14.5 11.4062 14.5625 10.2812C14.625 9.125 14.625 5.65625 14.5625 4.5ZM13.0625 11.5C12.8438 12.125 12.3438 12.5938 11.75 12.8438C10.8125 13.2188 8.625 13.125 7.625 13.125C6.59375 13.125 4.40625 13.2188 3.5 12.8438C2.875 12.5938 2.40625 12.125 2.15625 11.5C1.78125 10.5938 1.875 8.40625 1.875 7.375C1.875 6.375 1.78125 4.1875 2.15625 3.25C2.40625 2.65625 2.875 2.1875 3.5 1.9375C4.40625 1.5625 6.59375 1.65625 7.625 1.65625C8.625 1.65625 10.8125 1.5625 11.75 1.9375C12.3438 2.15625 12.8125 2.65625 13.0625 3.25C13.4375 4.1875 13.3438 6.375 13.3438 7.375C13.3438 8.40625 13.4375 10.5938 13.0625 11.5Z" fill="url(#paint0_linear_1_9176)"/>
<defs>
<linearGradient id="paint0_linear_1_9176" x1="9.72604" y1="24.8295" x2="29.6023" y2="5.24093" gradientUnits="userSpaceOnUse">
<stop stop-color="white"/>
<stop offset="0.147864" stop-color="#F6640E"/>
<stop offset="0.443974" stop-color="#BA03A7"/>
<stop offset="0.733337" stop-color="#6A01B9"/>
<stop offset="1" stop-color="#6B01B9"/>
</linearGradient>
</defs>
</svg>
