<svg width="17" height="16" viewBox="0 0 17 16" fill="none" xmlns="http://www.w3.org/2000/svg">
<path d="M13.8485 2.65L10.6985 2.65C10.5052 2.65 10.3485 2.8067 10.3485 3C10.3485 3.1933 10.5052 3.35 10.6985 3.35L13.0035 3.35L7.84848 8.50502C7.7118 8.64171 7.7118 8.86332 7.84848 9C7.98516 9.13668 8.20677 9.13668 8.34346 9L13.4985 3.84497V6.15C13.4985 6.3433 13.6552 6.5 13.8485 6.5C14.0418 6.5 14.1985 6.3433 14.1985 6.15V3C14.1985 2.8067 14.0418 2.65 13.8485 2.65Z" fill="#5068A5"/>
<path fill-rule="evenodd" clip-rule="evenodd" d="M6.84848 0C5.74391 0 4.84848 0.895431 4.84848 2V10C4.84848 11.1046 5.74391 12 6.84848 12H14.8485C15.953 12 16.8485 11.1046 16.8485 10V2C16.8485 0.895431 15.953 0 14.8485 0H6.84848ZM14.8485 0.9H6.84848C6.24097 0.9 5.74848 1.39249 5.74848 2V10C5.74848 10.6075 6.24097 11.1 6.84848 11.1H14.8485C15.456 11.1 15.9485 10.6075 15.9485 10V2C15.9485 1.39249 15.456 0.9 14.8485 0.9Z" fill="#5068A5"/>
<path d="M3.50473 8.45C3.50473 8.69853 3.30326 8.9 3.05473 8.9H2.84848C2.24097 8.9 1.74848 9.39249 1.74848 10V14C1.74848 14.6075 2.24097 15.1 2.84848 15.1H6.84848C7.45599 15.1 7.94848 14.6075 7.94848 14V13.7898C7.94848 13.5413 8.14995 13.3398 8.39848 13.3398C8.64701 13.3398 8.84848 13.5413 8.84848 13.7898V14C8.84848 15.1046 7.95305 16 6.84848 16H2.84848C1.74391 16 0.84848 15.1046 0.84848 14V10C0.84848 8.89543 1.74391 8 2.84848 8H3.05473C3.30326 8 3.50473 8.20147 3.50473 8.45Z" fill="#5068A5"/>
</svg>
