<svg width="24" height="24" viewBox="0 0 24 24" fill="none" xmlns="http://www.w3.org/2000/svg">
<path d="M23.25 13.4443H18.6V8.94427C18.6 7.29427 17.55 5.79427 15.75 4.59427C12.3 2.49427 6.9 2.49427 3.3 4.44427C1.5 5.34427 0.3 6.69427 0 8.19427C0 8.64427 0 11.4943 0 15.9943C0 17.3443 0.9 18.5443 2.55 19.4443C3.45 19.8943 4.5 20.3443 5.55 20.3443H23.1C23.55 20.3443 23.85 20.0443 23.85 19.5943V14.1943C24 13.7443 23.7 13.4443 23.25 13.4443ZM17.25 13.4443H15.45C16.2 13.1443 16.8 12.6943 17.25 12.0943V13.4443ZM1.5 8.49427C1.95 6.24427 5.4 4.44427 9.45 4.44427C11.7 4.44427 13.65 4.89427 15.15 5.94427C18 7.74427 18 10.4443 15.15 12.0943C12.9 13.4443 9.6 13.7443 6.9 13.2943C3.75 12.6943 1.35 10.8943 1.35 8.94427C1.35 8.79427 1.35 8.64427 1.5 8.49427ZM22.65 19.1443H19.5V17.9443C19.5 17.4943 19.2 17.1943 18.75 17.1943C18.3 17.1943 18 17.4943 18 17.9443V19.1443H15.6V17.9443C15.6 17.4943 15.3 17.1943 14.85 17.1943C14.4 17.1943 14.1 17.4943 14.1 17.9443V19.1443H11.7V17.9443C11.7 17.4943 11.4 17.1943 10.95 17.1943C10.8 17.1943 10.5 17.4943 10.5 17.9443V19.1443H8.1V17.9443C8.1 17.4943 7.8 17.1943 7.35 17.1943C6.9 17.1943 6.6 17.4943 6.6 17.9443V19.1443H5.55C4.65 18.9943 3.75 18.8443 3 18.3943C1.8 17.7943 1.05 16.8943 1.05 16.1443V12.0943C1.2 12.2443 1.8 12.6943 1.8 12.6943C4.2 14.1943 6.9 14.9443 9.45 14.9443H22.65V19.1443Z" fill="#5068A5"/>
<path d="M8.4 11.4943C10.65 11.7943 13.05 10.7443 13.05 8.94426C13.05 7.44426 11.4 6.39426 9.3 6.39426C7.5 6.39426 6 7.29426 5.7 8.64426C5.7 8.79426 5.7 8.94426 5.7 8.94426C5.7 10.1443 6.75 11.0443 8.4 11.4943ZM7.05 8.79426C7.2 8.34426 8.1 7.74426 9.3 7.74426C10.65 7.74426 11.55 8.34426 11.55 8.94426C11.55 9.69426 10.05 10.2943 8.55 9.99426C7.8 9.84426 7.05 9.39426 7.05 8.79426C7.05 8.94426 7.05 8.94426 7.05 8.79426Z" fill="#5068A5"/>
</svg>
