<svg width="20" height="20" viewBox="0 0 20 20" fill="none" xmlns="http://www.w3.org/2000/svg">
<circle cx="10" cy="10" r="10" fill="white"/>
<path d="M7.28914 6.03373C7.22561 5.93234 7.24282 5.80015 7.33019 5.71841C7.46839 5.58913 7.61918 5.46727 7.78225 5.35268L7.7848 5.35088C7.95564 5.23399 8.13918 5.13116 8.33503 5.04214L8.33695 5.04127C8.54051 4.95079 8.75638 4.88119 8.98403 4.83197C9.22073 4.77751 9.47252 4.75098 9.73848 4.75098C10.0919 4.75098 10.4237 4.80244 10.7316 4.90809C11.0416 5.01301 11.314 5.16326 11.5449 5.36116C11.7768 5.55994 11.9587 5.80136 12.09 6.08276C12.2241 6.37 12.2885 6.68806 12.2885 7.03223C12.2885 7.37249 12.2372 7.67916 12.1261 7.94559C12.0256 8.19638 11.8941 8.42096 11.7305 8.61727C11.577 8.80241 11.4073 8.96543 11.2205 9.10664L10.7447 9.46348C10.6043 9.56883 10.4862 9.67196 10.3891 9.77253C10.3179 9.85004 10.2839 9.92669 10.2742 10.0057L10.1618 10.9614C10.147 11.0873 10.0403 11.1822 9.91348 11.1822H9.15098C9.01991 11.1822 8.91109 11.081 8.90163 10.9503L8.82678 9.9147C8.80653 9.68257 8.84994 9.4645 8.97042 9.27443C9.07261 9.10933 9.20417 8.95964 9.36212 8.82466C9.51131 8.69314 9.67472 8.56688 9.852 8.44571C10.0108 8.33324 10.1577 8.20941 10.293 8.0742L10.2954 8.07171C10.4272 7.94359 10.5368 7.79944 10.6247 7.63858C10.7013 7.49447 10.7447 7.31402 10.7447 7.08848C10.7447 6.94313 10.7162 6.81855 10.6636 6.7102C10.6079 6.59541 10.534 6.50126 10.4416 6.42483L10.4377 6.42162C10.3444 6.34118 10.2307 6.2774 10.0925 6.23249L10.0907 6.2319C9.95596 6.187 9.80789 6.16348 9.64473 6.16348C9.41036 6.16348 9.22052 6.19238 9.06996 6.24358C8.90278 6.30195 8.76741 6.36392 8.66086 6.42785C8.54272 6.49873 8.45103 6.56081 8.38324 6.6141C8.30007 6.68298 8.17989 6.76348 8.03848 6.76348C7.83988 6.76348 7.68167 6.66378 7.58213 6.50127L7.28914 6.03373Z" fill="#5068A5"/>
<path d="M8.54672 12.9638C8.59902 12.8435 8.66859 12.7355 8.75643 12.6421L8.76163 12.6366C8.85559 12.5427 8.96547 12.4691 9.0888 12.4155C9.21725 12.3596 9.35339 12.3322 9.49473 12.3322C9.63608 12.3322 9.77222 12.3596 9.90067 12.4155C10.024 12.4691 10.1338 12.5427 10.2278 12.6367C10.3217 12.7307 10.3954 12.8405 10.449 12.9638C10.5048 13.0922 10.5322 13.2284 10.5322 13.3697C10.5322 13.5139 10.5054 13.6523 10.449 13.7819L10.4474 13.7857C10.3934 13.9045 10.3199 14.0106 10.2278 14.1028C10.1329 14.1976 10.0217 14.2699 9.89638 14.3196C9.76919 14.3742 9.63451 14.401 9.49473 14.401C9.35496 14.401 9.22027 14.3742 9.09309 14.3196C8.96779 14.2699 8.85652 14.1976 8.76171 14.1028L8.75635 14.0974C8.67022 14.0059 8.60101 13.9014 8.54839 13.7857L8.54284 13.7735C8.49296 13.646 8.46973 13.5105 8.46973 13.3697C8.46973 13.2319 8.49372 13.0988 8.54317 12.9724L8.54672 12.9638Z" fill="#5068A5"/>
</svg>
