<svg width="16" height="16" viewBox="0 0 16 16" fill="none" xmlns="http://www.w3.org/2000/svg">
<path d="M13.6988 6.02634L13.0486 5.91607C12.9907 5.75494 12.9253 5.59685 12.853 5.44315L13.2358 4.90747C13.569 4.43943 13.5155 3.8073 13.1099 3.4057L12.3286 2.62425C12.1077 2.40341 11.815 2.28175 11.5043 2.28175C11.2596 2.28175 11.0257 2.35712 10.8293 2.49842L10.2916 2.88141C10.1253 2.80275 9.95653 2.73331 9.78665 2.67329L9.67913 2.03618C9.58453 1.47192 9.10052 1.0625 8.5282 1.0625H7.4243C6.8521 1.0625 6.36813 1.47195 6.27373 2.03512L6.16071 2.69714C6.00111 2.75545 5.84374 2.82165 5.68962 2.89561L5.16167 2.51536C4.96372 2.37285 4.72883 2.29757 4.48235 2.29757C4.16863 2.29757 3.87577 2.41943 3.65736 2.64078L2.87418 3.42143C2.46972 3.82588 2.41673 4.45751 2.74825 4.9232L3.13735 5.46987C3.06563 5.62418 3.00113 5.78298 2.94417 5.94502L2.30697 6.05255C1.7428 6.14725 1.33337 6.63126 1.33337 7.20348V8.30738C1.33337 8.87958 1.74282 9.36355 2.30599 9.45813L2.96801 9.57104C3.0263 9.73075 3.09263 9.88822 3.16647 10.0422L2.78765 10.5692C2.45451 11.0372 2.50801 11.6694 2.91359 12.0709L3.69493 12.8524C3.91578 13.0732 4.20854 13.1949 4.51921 13.1949C4.76386 13.1949 4.99783 13.1195 5.19405 12.9783L5.74073 12.5892C5.88436 12.656 6.03328 12.7171 6.18618 12.7721L6.29452 13.4222C6.38922 13.9864 6.87323 14.3958 7.44544 14.3958H8.55193C9.12413 14.3958 9.60828 13.9864 9.70276 13.4229L9.81303 12.7726C9.97416 12.7148 10.1322 12.6493 10.286 12.577L10.8199 12.9587C11.0179 13.1012 11.2527 13.1766 11.4992 13.1766C11.8098 13.1766 12.1026 13.0549 12.3234 12.8341L13.1047 12.0526C13.5093 11.6482 13.5622 11.0165 13.2307 10.5509L12.8474 10.0126C12.9216 9.85536 12.9873 9.69738 13.0437 9.54032L13.693 9.43209C14.2572 9.33738 14.6666 8.85337 14.6666 8.28116V7.17948C14.673 6.60666 14.2665 6.12206 13.6989 6.02642L13.6988 6.02634ZM13.8853 8.28108C13.8853 8.47019 13.75 8.6302 13.564 8.66143L12.7028 8.80496C12.5439 8.83145 12.4157 8.94351 12.368 9.09762C12.2915 9.34553 12.1864 9.59893 12.0559 9.85039C11.9821 9.9922 11.9939 10.1612 12.0867 10.2912L12.5942 11.0038C12.7036 11.1577 12.686 11.3664 12.5522 11.5002L11.7709 12.2815C11.6965 12.3558 11.6025 12.3952 11.4991 12.3952C11.4175 12.3952 11.3405 12.3708 11.2752 12.3239L10.5656 11.8167C10.4351 11.723 10.2654 11.7112 10.1229 11.7857C9.88421 11.9106 9.63061 12.0157 9.36908 12.0978C9.21649 12.1456 9.10511 12.2734 9.07855 12.4307L8.93227 13.2928C8.90104 13.4793 8.74103 13.6145 8.55182 13.6145H7.44534C7.25613 13.6145 7.09622 13.4793 7.06498 13.2933L6.92145 12.4321C6.8952 12.2742 6.78411 12.1462 6.63153 12.098C6.37376 12.0166 6.1283 11.9157 5.90176 11.798C5.84001 11.766 5.77318 11.7502 5.70665 11.7502C5.62059 11.7502 5.53493 11.7766 5.46159 11.8289L4.73924 12.343C4.67413 12.3899 4.60007 12.4136 4.51911 12.4136C4.41565 12.4136 4.32166 12.3743 4.24729 12.2999L3.46453 11.5171C3.33096 11.3849 3.31398 11.1768 3.42292 11.0237L3.92737 10.322C4.02228 10.1902 4.03388 10.0194 3.95738 9.87562C3.8291 9.63503 3.7228 9.38276 3.64132 9.1257C3.5931 8.97413 3.46584 8.86335 3.30919 8.8366L2.43619 8.68778C2.24983 8.65645 2.11454 8.49643 2.11454 8.30733V7.20342C2.11454 7.01432 2.24983 6.8543 2.4365 6.82297L3.28713 6.67944C3.44612 6.65269 3.57419 6.54028 3.6215 6.38566C3.70176 6.123 3.80501 5.86899 3.9284 5.63096C4.00185 5.48946 3.99005 5.32091 3.89758 5.1908L3.38468 4.47018C3.27513 4.31637 3.29273 4.10764 3.42609 3.97427L4.21008 3.19292L4.21293 3.19026C4.28342 3.11852 4.37904 3.07907 4.48229 3.07907C4.56388 3.07907 4.64099 3.10352 4.70507 3.14965L5.40982 3.65696C5.54176 3.75197 5.71286 3.76335 5.85609 3.68682C6.09667 3.55855 6.34895 3.45225 6.6057 3.37087C6.75727 3.32278 6.86805 3.1957 6.89501 3.03863L7.04393 2.16563C7.07516 1.97927 7.23517 1.84398 7.42438 1.84398H8.52829C8.7174 1.84398 8.8774 1.97927 8.90874 2.16593L9.05227 3.01686C9.07913 3.17596 9.19174 3.30394 9.34646 3.35113C9.61024 3.43131 9.87329 3.53953 10.1285 3.67299C10.2703 3.74703 10.4393 3.73548 10.5699 3.64259L11.2842 3.13387C11.3492 3.08693 11.4233 3.06329 11.5043 3.06329C11.6077 3.06329 11.7017 3.10258 11.7762 3.17701L12.5588 3.95969C12.6924 4.09193 12.7095 4.30006 12.5998 4.45396L12.0921 5.16432C11.9989 5.29493 11.9873 5.4644 12.0617 5.60641C12.1867 5.84506 12.2917 6.09866 12.3739 6.36029C12.4218 6.51288 12.5495 6.62416 12.7067 6.65071L13.5681 6.79689L13.5689 6.797C13.7547 6.8282 13.8879 6.9859 13.8852 7.17196L13.8853 8.28108Z" fill="#5068A5"/>
<path d="M7.99859 5.13539C6.56918 5.13539 5.40625 6.29832 5.40625 7.72773C5.40625 9.15715 6.56918 10.3201 7.99859 10.3201C9.428 10.3201 10.5909 9.15715 10.5909 7.72773C10.5909 6.29832 9.428 5.13539 7.99859 5.13539ZM7.99859 9.53883C6.99993 9.53883 6.18749 8.72635 6.18749 7.72773C6.18749 6.72907 6.99996 5.91663 7.99859 5.91663C8.99725 5.91663 9.80969 6.72912 9.80969 7.72773C9.80969 8.72639 8.99721 9.53883 7.99859 9.53883Z" fill="#5068A5"/>
</svg>
