<svg width="24" height="24" viewBox="0 0 24 24" fill="none" xmlns="http://www.w3.org/2000/svg">
<g clip-path="url(#clip0_586_301)">
<path d="M23.9682 15.1677C23.93 15.244 23.8665 15.3048 23.7885 15.3397C23.7106 15.3745 23.6229 15.3814 23.5405 15.359C23.4581 15.3366 23.386 15.2864 23.3363 15.2169C23.2867 15.1474 23.2626 15.0629 23.2682 14.9777V6.25768C16.6082 6.25768 9.93824 6.25768 3.26824 6.25768C3.18513 6.25252 3.1073 6.21516 3.05128 6.15355C2.99527 6.09193 2.96548 6.01091 2.96824 5.92768C2.95679 5.84421 2.97872 5.7596 3.02927 5.6922C3.07982 5.6248 3.15491 5.58006 3.23824 5.56768C9.90824 5.56768 16.5882 5.56768 23.2382 5.56768C23.2382 4.64768 23.2382 3.72768 23.2382 2.79768C23.2382 2.25768 22.8482 2.03768 22.3482 2.07768C15.3482 2.07768 8.34824 2.07768 1.34824 2.07768C1.19086 2.0829 1.04184 2.14979 0.933329 2.26391C0.824823 2.37803 0.765529 2.53023 0.76824 2.68768C0.76824 3.62768 0.76824 4.56768 0.76824 5.54768C1.16824 5.54768 1.68824 5.41768 1.98824 5.75768C2.01778 5.81029 2.03234 5.86999 2.03032 5.93029C2.0283 5.99059 2.00979 6.04918 1.9768 6.0997C1.94381 6.15022 1.8976 6.19072 1.8432 6.21681C1.7888 6.2429 1.72829 6.25358 1.66824 6.24768C1.36824 6.24768 1.07824 6.24768 0.75824 6.24768V21.1277C0.75824 21.6977 0.98824 21.9277 1.54824 21.9277H22.5482C23.0982 21.9277 23.3282 21.6877 23.3282 21.1377V16.7477C23.3282 16.2677 23.7982 16.2077 24.0282 16.5277V21.5277C23.6982 22.3477 23.3382 22.6277 22.5582 22.6277C15.3982 22.5677 8.20824 22.7477 1.05824 22.5577C0.827502 22.4863 0.618963 22.3569 0.452615 22.1818C0.286266 22.0067 0.167686 21.7918 0.10824 21.5577C0.0982397 15.0877 -0.19176 8.57768 0.10824 2.17768C0.22579 1.91335 0.422885 1.69228 0.672048 1.54529C0.921212 1.3983 1.21003 1.33272 1.49824 1.35768C8.57824 1.35768 15.6482 1.35768 22.7282 1.35768C22.9398 1.38273 23.1418 1.45977 23.3163 1.58191C23.4908 1.70406 23.6323 1.86751 23.7282 2.05768C24.1982 6.35768 23.7782 10.8277 23.9682 15.1677Z" fill="#717B9E"/>
<path d="M2.90824 15.0777C1.98824 15.1477 2.07824 14.2877 2.09824 13.6177C2.14824 12.6877 2.84824 13.1577 2.99824 12.7577C3.14824 12.3577 3.47824 11.9777 3.28824 11.7577C3.21481 11.6967 3.15571 11.6203 3.11516 11.5338C3.0746 11.4474 3.05357 11.3531 3.05357 11.2577C3.05357 11.1622 3.0746 11.0679 3.11516 10.9815C3.15571 10.8951 3.21481 10.8187 3.28824 10.7577C3.66824 10.3577 4.19824 9.75768 4.73824 10.2477C4.96824 10.4577 5.65824 9.92768 5.96824 9.85768C5.88824 8.92768 6.81824 9.01768 7.46824 9.04768C8.35824 9.10768 7.86824 9.82768 8.33824 9.95768C8.64824 10.0177 8.97824 10.3677 9.33824 10.2277C9.40109 10.1572 9.47813 10.1008 9.56429 10.0622C9.65046 10.0236 9.74382 10.0037 9.83824 10.0037C9.93266 10.0037 10.026 10.0236 10.1122 10.0622C10.1984 10.1008 10.2754 10.1572 10.3382 10.2277C10.7382 10.6077 11.3982 11.1277 10.8482 11.6777C10.6082 11.8977 11.1282 12.5577 11.1982 12.8877C12.1182 12.8077 12.0382 13.7077 12.0182 14.3677C11.9482 15.2877 11.2282 14.7777 11.0982 15.2477C11.0982 15.5577 10.6182 15.9877 10.8382 16.2477C10.9133 16.3076 10.9739 16.3837 11.0155 16.4703C11.0571 16.5568 11.0787 16.6516 11.0787 16.7477C11.0787 16.8437 11.0571 16.9385 11.0155 17.0251C10.9739 17.1116 10.9133 17.1877 10.8382 17.2477C10.4482 17.6577 9.90824 18.3577 9.34824 17.7977C9.33228 17.7741 9.3117 17.7541 9.28776 17.7387C9.26382 17.7234 9.23701 17.7131 9.20895 17.7084C9.1809 17.7037 9.15219 17.7048 9.12457 17.7115C9.09694 17.7183 9.07097 17.7306 9.04824 17.7477C8.76207 17.9049 8.46048 18.0322 8.14824 18.1277C8.22824 19.0577 7.32824 18.9977 6.65824 18.9577C5.75824 18.8977 6.21824 18.1977 5.81824 18.0577C5.41824 17.9177 5.03824 17.5777 4.81824 17.7677C4.75724 17.8411 4.68082 17.9002 4.59441 17.9408C4.50799 17.9813 4.4137 18.0023 4.31824 18.0023C4.22278 18.0023 4.12849 17.9813 4.04207 17.9408C3.95566 17.9002 3.87924 17.8411 3.81824 17.7677C3.42824 17.3877 2.81824 16.8577 3.31824 16.3177C3.50824 16.0677 2.96824 15.3577 2.90824 15.0777ZM11.2982 14.3577V13.6377C11.1359 13.6685 10.9679 13.64 10.8247 13.5575C10.6816 13.4749 10.5728 13.3437 10.5182 13.1877C10.3482 12.5677 9.64824 11.8177 10.2882 11.2677L9.78824 10.7577C9.26824 11.4277 8.46824 10.7077 7.85824 10.5377C7.70682 10.4767 7.58021 10.3667 7.49864 10.2253C7.41707 10.0839 7.38524 9.91928 7.40824 9.75768H6.68824C6.72116 9.92281 6.69256 10.0943 6.60784 10.2398C6.52311 10.3853 6.3881 10.4948 6.22824 10.5477C5.60824 10.7077 4.86824 11.4177 4.31824 10.7577L3.79824 11.2577C4.47824 11.7877 3.79824 12.5577 3.59824 13.1777C3.53923 13.3318 3.43042 13.4617 3.2891 13.5469C3.14777 13.632 2.98204 13.6675 2.81824 13.6477V14.3577C3.32824 14.2977 3.55824 14.5777 3.67824 15.0277C3.79824 15.4777 4.42824 16.2077 3.83824 16.6877L4.32824 17.2277C4.84824 16.5577 5.61824 17.2277 6.22824 17.4377C6.38638 17.4939 6.5199 17.6037 6.60572 17.7479C6.69154 17.8922 6.72426 18.0619 6.69824 18.2277H7.42824C7.42824 17.6977 7.66824 17.4777 8.11824 17.3577C8.56824 17.2377 9.26824 16.6177 9.77824 17.2077L10.3182 16.7377C9.64824 16.1477 10.3182 15.6477 10.4582 14.9977C10.5982 14.3477 10.7282 14.3577 11.2982 14.3577Z" fill="#717B9E"/>
<path d="M8.39824 4.15768C6.39824 4.15768 4.39824 4.15768 2.46824 4.15768C2.35824 4.08768 2.21824 3.96768 2.21824 3.85768C2.22177 3.80095 2.23706 3.74558 2.26312 3.69508C2.28919 3.64458 2.32548 3.60005 2.36967 3.56432C2.41387 3.52859 2.46501 3.50243 2.51985 3.48752C2.57469 3.4726 2.63203 3.46925 2.68824 3.47768H14.1082C14.3482 3.47768 14.6282 3.57768 14.5782 3.86768C14.5282 4.15768 14.2782 4.19768 14.0482 4.17768L8.39824 4.15768Z" fill="#717B9E"/>
<path d="M16.7982 17.9477C16.7982 18.2288 16.6866 18.4984 16.4878 18.6972C16.289 18.896 16.0194 19.0077 15.7382 19.0077C15.4571 19.0077 15.1875 18.896 14.9887 18.6972C14.7899 18.4984 14.6782 18.2288 14.6782 17.9477C14.3582 17.9477 13.6782 18.0577 13.6782 17.5977C13.6782 17.3777 13.8182 17.2577 14.0782 17.2477C14.3382 17.2377 14.4582 17.2477 14.5882 17.2477C14.7182 17.2477 14.6782 17.0177 14.7282 16.8977C14.7773 16.6325 14.9297 16.3976 15.1519 16.2448C15.3742 16.0919 15.648 16.0336 15.9132 16.0827C16.1785 16.1317 16.4133 16.2842 16.5662 16.5064C16.719 16.7286 16.7773 17.0025 16.7282 17.2677H21.2382C21.4782 17.2677 21.7882 17.3277 21.7582 17.6277C21.7282 17.9277 21.4482 17.9877 21.2082 17.9677L16.7982 17.9477ZM15.4082 17.5977C15.2682 18.3477 15.9482 18.4677 16.0582 17.9777C16.078 17.7214 16.078 17.464 16.0582 17.2077C15.9682 16.7377 15.2682 16.8477 15.4082 17.5977Z" fill="#717B9E"/>
<path d="M16.7882 10.7777C16.7627 11.0398 16.6405 11.283 16.4455 11.4599C16.2505 11.6368 15.9966 11.7348 15.7332 11.7348C15.4699 11.7348 15.216 11.6368 15.021 11.4599C14.826 11.283 14.7038 11.0398 14.6782 10.7777C14.3682 10.7777 13.6782 10.8877 13.6782 10.4277C13.6782 9.96768 14.3182 10.1277 14.6782 10.0577C14.7038 9.79559 14.826 9.5524 15.021 9.37546C15.216 9.19852 15.4699 9.10051 15.7332 9.10051C15.9966 9.10051 16.2505 9.19852 16.4455 9.37546C16.6405 9.5524 16.7627 9.79559 16.7882 10.0577H21.3082C21.5382 10.0577 21.8182 10.0577 21.8182 10.3877C21.8182 10.7177 21.5482 10.7877 21.2982 10.7577L16.7882 10.7777ZM15.4082 10.3577C15.2682 11.1477 15.9582 11.2377 16.0582 10.7477C16.0782 10.5014 16.0782 10.2539 16.0582 10.0077C15.9682 9.52768 15.2682 9.66768 15.4082 10.3577Z" fill="#717B9E"/>
<path d="M18.7582 14.3577C17.1482 14.3577 15.5482 14.4177 13.9482 14.3577C13.4882 14.1677 13.7982 13.5777 14.2482 13.6977H18.7482C18.7482 13.4165 18.8599 13.1469 19.0587 12.9481C19.2575 12.7494 19.5271 12.6377 19.8082 12.6377C20.0894 12.6377 20.359 12.7494 20.5578 12.9481C20.7566 13.1469 20.8682 13.4165 20.8682 13.6977C21.1782 13.6977 21.8682 13.5677 21.8682 14.0377C21.8682 14.5077 21.2382 14.3877 20.9182 14.3977C20.9129 14.6841 20.7941 14.9567 20.5878 15.1555C20.3815 15.3543 20.1047 15.463 19.8182 15.4577C19.5318 15.4524 19.2592 15.3335 19.0604 15.1272C18.8616 14.9209 18.7529 14.6441 18.7582 14.3577ZM20.1382 14.0277C20.2682 13.2477 19.5782 13.1177 19.4782 13.6477C19.4583 13.8873 19.4583 14.1281 19.4782 14.3677C19.5782 14.8877 20.2782 14.7477 20.1382 14.0377V14.0277Z" fill="#717B9E"/>
<path d="M20.4682 2.60768C20.7865 2.60768 21.0917 2.73411 21.3168 2.95915C21.5418 3.18419 21.6682 3.48942 21.6682 3.80768C21.6682 4.12594 21.5418 4.43116 21.3168 4.65621C21.0917 4.88125 20.7865 5.00768 20.4682 5.00768C20.15 5.00768 19.8448 4.88125 19.6197 4.65621C19.3947 4.43116 19.2682 4.12594 19.2682 3.80768C19.2682 3.48942 19.3947 3.18419 19.6197 2.95915C19.8448 2.73411 20.15 2.60768 20.4682 2.60768ZM20.4682 3.30768C20.3356 3.30768 20.2085 3.36036 20.1147 3.45412C20.0209 3.54789 19.9682 3.67507 19.9682 3.80768C19.9682 3.94029 20.0209 4.06746 20.1147 4.16123C20.2085 4.255 20.3356 4.30768 20.4682 4.30768C20.5679 4.27376 20.6544 4.20923 20.7153 4.12328C20.7761 4.03733 20.8083 3.93436 20.8072 3.82906C20.8061 3.72375 20.7717 3.62148 20.7091 3.53684C20.6464 3.45219 20.5586 3.38949 20.4582 3.35768L20.4682 3.30768Z" fill="#717B9E"/>
<path d="M17.0182 5.00768C16.8607 5.00243 16.7056 4.96618 16.5621 4.90103C16.4185 4.83587 16.2891 4.74307 16.1814 4.62792C15.9639 4.39538 15.8476 4.08594 15.8582 3.76768C15.8688 3.44942 16.0054 3.14841 16.238 2.93087C16.4705 2.71332 16.78 2.59707 17.0982 2.60768C17.4165 2.61829 17.7175 2.75489 17.9351 2.98743C18.1526 3.21998 18.2688 3.52942 18.2582 3.84768C18.2476 4.16594 18.111 4.46695 17.8785 4.68449C17.6459 4.90203 17.3365 5.01829 17.0182 5.00768ZM17.5482 3.81768C17.5482 3.68507 17.4956 3.55789 17.4018 3.46412C17.308 3.37036 17.1808 3.31768 17.0482 3.31768C16.9156 3.31768 16.7885 3.37036 16.6947 3.46412C16.6009 3.55789 16.5482 3.68507 16.5482 3.81768C16.5482 3.95029 16.6009 4.07746 16.6947 4.17123C16.7885 4.265 16.9156 4.31768 17.0482 4.31768C17.1808 4.31768 17.308 4.265 17.4018 4.17123C17.4956 4.07746 17.5482 3.95029 17.5482 3.81768Z" fill="#717B9E"/>
<path d="M4.48824 14.0077C4.52901 13.3551 4.81699 12.7426 5.29354 12.2949C5.77009 11.8471 6.39937 11.5979 7.05324 11.5979C7.70711 11.5979 8.33639 11.8471 8.81294 12.2949C9.28949 12.7426 9.57747 13.3551 9.61824 14.0077C9.57747 14.6603 9.28949 15.2728 8.81294 15.7205C8.33639 16.1682 7.70711 16.4174 7.05324 16.4174C6.39937 16.4174 5.77009 16.1682 5.29354 15.7205C4.81699 15.2728 4.52901 14.6603 4.48824 14.0077ZM7.04824 15.8677C7.51928 15.8332 7.95981 15.6217 8.28134 15.2757C8.60287 14.9298 8.78158 14.475 8.78158 14.0027C8.78158 13.5304 8.60287 13.0756 8.28134 12.7296C7.95981 12.3837 7.51928 12.1722 7.04824 12.1377C6.5772 12.1722 6.13667 12.3837 5.81514 12.7296C5.49361 13.0756 5.3149 13.5304 5.3149 14.0027C5.3149 14.475 5.49361 14.9298 5.81514 15.2757C6.13667 15.6217 6.5772 15.8332 7.04824 15.8677Z" fill="#717B9E"/>
</g>
<defs>
<clipPath id="clip0_586_301">
<rect width="24" height="24" fill="white"/>
</clipPath>
</defs>
</svg>
