<svg width="20" height="20" viewBox="0 0 20 20" fill="none" xmlns="http://www.w3.org/2000/svg">
<circle cx="10" cy="10" r="10" fill="white"/>
<path fill-rule="evenodd" clip-rule="evenodd" d="M15.625 12.5C15.625 12.1548 15.3452 11.875 15 11.875L10 11.875C9.65482 11.875 9.375 12.1548 9.375 12.5C9.375 12.8452 9.65482 13.125 10 13.125L15 13.125C15.3452 13.125 15.625 12.8452 15.625 12.5Z" fill="#5068A5"/>
<path fill-rule="evenodd" clip-rule="evenodd" d="M13.96 10C13.96 9.65482 13.6801 9.375 13.335 9.375L10.0016 9.375C9.65645 9.375 9.37663 9.65482 9.37663 10C9.37663 10.3452 9.65645 10.625 10.0016 10.625L13.335 10.625C13.6801 10.625 13.96 10.3452 13.96 10Z" fill="#5068A5"/>
<path fill-rule="evenodd" clip-rule="evenodd" d="M12.29 7.5C12.29 7.15482 12.0102 6.875 11.665 6.875L9.99837 6.875C9.65319 6.875 9.37337 7.15482 9.37337 7.5C9.37337 7.84518 9.65319 8.125 9.99837 8.125L11.665 8.125C12.0102 8.125 12.29 7.84518 12.29 7.5Z" fill="#5068A5"/>
<path fill-rule="evenodd" clip-rule="evenodd" d="M6.25 13.125C6.59518 13.125 6.875 12.8452 6.875 12.5V6.25C6.875 5.90482 6.59518 5.625 6.25 5.625C5.90482 5.625 5.625 5.90482 5.625 6.25V12.5C5.625 12.8452 5.90482 13.125 6.25 13.125Z" fill="#5068A5"/>
<path fill-rule="evenodd" clip-rule="evenodd" d="M5.80806 14.1919C6.05214 14.436 6.44786 14.436 6.69194 14.1919L7.94194 12.9419C8.18602 12.6979 8.18602 12.3021 7.94194 12.0581C7.69786 11.814 7.30214 11.814 7.05806 12.0581L6.25 12.8661L5.44194 12.0581C5.19786 11.814 4.80214 11.814 4.55806 12.0581C4.31398 12.3021 4.31398 12.6979 4.55806 12.9419L5.80806 14.1919Z" fill="#5068A5"/>
</svg>
