<svg width="14" height="13" viewBox="0 0 14 13" fill="none" xmlns="http://www.w3.org/2000/svg">
<path d="M0.561926 6.25069L3.62732 7.39372L4.8223 11.2384C4.87426 11.4982 5.18599 11.5502 5.39382 11.3943L7.10835 9.9915C7.26421 9.83563 7.524 9.83563 7.73182 9.9915L10.7972 12.2256C11.005 12.3815 11.3168 12.2775 11.3687 12.0178L13.6548 1.10707C13.7067 0.847294 13.447 0.587518 13.1872 0.691429L0.561926 5.57527C0.250191 5.67918 0.250191 6.14678 0.561926 6.25069ZM4.66644 6.8222L10.6933 3.13335C10.7972 3.08139 10.9011 3.23726 10.7972 3.28921L5.86141 7.91327C5.70555 8.06914 5.54968 8.27696 5.54968 8.53674L5.39382 9.78368C5.39382 9.93954 5.13403 9.9915 5.08208 9.78368L4.4586 7.49763C4.30274 7.23785 4.40666 6.92611 4.66644 6.8222Z" fill="#2F80ED"/>
</svg>
