<svg width="10" height="9" viewBox="0 0 10 9" fill="none" xmlns="http://www.w3.org/2000/svg">
<path d="M5.19252 6.97407L8.60539 3.56121C8.66327 3.50332 8.72989 3.47448 8.80514 3.47448C8.88042 3.47448 8.94704 3.50329 9.00489 3.56121L9.43914 3.99527C9.49699 4.05315 9.52604 4.11977 9.52604 4.19493C9.52604 4.2703 9.49699 4.33692 9.43914 4.39477L5.39237 8.44184C5.33448 8.49973 5.26787 8.52863 5.19261 8.52863C5.11733 8.52863 5.05075 8.49973 4.99286 8.44184L0.946093 4.39477C0.888117 4.33692 0.859372 4.27036 0.859372 4.19493C0.859372 4.11976 0.888177 4.05315 0.946093 3.9953L1.38006 3.56121C1.43795 3.50332 1.50459 3.47448 1.57991 3.47448C1.6551 3.47448 1.72168 3.50329 1.77957 3.56121L5.19252 6.97407Z" fill="#5068A5"/>
<path d="M5.19252 3.64076L8.60539 0.227892C8.66327 0.170008 8.72989 0.141172 8.80514 0.141172C8.88042 0.141172 8.94704 0.169977 9.00489 0.227892L9.43914 0.661952C9.49699 0.719837 9.52604 0.786452 9.52604 0.861615C9.52604 0.936989 9.49699 1.0036 9.43914 1.06146L5.39237 5.10853C5.33448 5.16642 5.26787 5.19531 5.19261 5.19531C5.11733 5.19531 5.05075 5.16642 4.99286 5.10853L0.946093 1.06146C0.888117 1.0036 0.859372 0.93705 0.859372 0.861614C0.859372 0.786452 0.888177 0.719837 0.946093 0.661983L1.38006 0.227892C1.43795 0.170007 1.50459 0.141172 1.57991 0.141172C1.6551 0.141172 1.72168 0.169977 1.77957 0.227892L5.19252 3.64076Z" fill="#5068A5"/>
</svg>
