<svg width="14" height="8" viewBox="0 0 14 8" fill="none" xmlns="http://www.w3.org/2000/svg">
<path d="M13.5376 6.94956C13.5376 6.89651 13.4846 6.89651 13.4846 6.84346C13.2724 6.41906 12.7949 5.88856 12.1583 5.30501C11.84 5.03976 11.6809 4.82756 11.5747 4.72146C11.4156 4.50926 11.4156 4.35011 11.4687 4.13791C11.5217 3.97876 11.7339 3.7135 12.1053 3.23605C12.3175 2.9708 12.4235 2.81166 12.5827 2.65251C13.3785 1.5915 13.7498 0.901847 13.6437 0.583546L13.5907 0.530501C13.5376 0.477451 13.4846 0.424403 13.3785 0.424403C13.2724 0.371352 13.1132 0.371352 12.9541 0.424403H10.9382C10.8851 0.424403 10.8851 0.424403 10.779 0.424403C10.7259 0.424403 10.6729 0.424403 10.6729 0.424403H10.6199H10.5668L10.5137 0.477448C10.4607 0.530498 10.4607 0.530496 10.4607 0.583546C10.2485 1.1671 9.98325 1.64455 9.718 2.17505C9.55885 2.4403 9.3997 2.70556 9.24055 2.91776C9.0814 3.12996 8.97529 3.2891 8.86919 3.3952C8.76309 3.5013 8.65699 3.55435 8.60394 3.66045C8.55089 3.71351 8.4448 3.76656 8.4448 3.71351C8.39175 3.71351 8.33869 3.71351 8.33869 3.66045C8.28564 3.6074 8.23259 3.55435 8.17954 3.5013C8.12649 3.44825 8.12649 3.34215 8.07344 3.23605C8.07344 3.12995 8.07344 3.02385 8.07344 2.9708C8.07344 2.91775 8.07344 2.75861 8.07344 2.65251C8.07344 2.49336 8.07344 2.38725 8.07344 2.3342C8.07344 2.17505 8.07344 1.96286 8.07344 1.75066C8.07344 1.53846 8.07344 1.3793 8.07344 1.2732C8.07344 1.1671 8.07344 1.00795 8.07344 0.90185C8.07344 0.7427 8.07344 0.636597 8.07344 0.583546C8.07344 0.530496 8.0204 0.424399 8.0204 0.371349C7.96735 0.318299 7.91429 0.265247 7.86124 0.212197C7.80819 0.159147 7.70209 0.159149 7.64904 0.106099C7.38379 0.0530485 7.0655 0 6.69415 0C5.84535 0 5.26179 0.0530517 5.04959 0.159152C4.94349 0.212202 4.83739 0.265249 4.78434 0.371349C4.67824 0.477449 4.67824 0.530501 4.73129 0.530501C4.99654 0.583551 5.20874 0.689647 5.31484 0.848797L5.3679 0.954904C5.42095 1.00795 5.42094 1.11405 5.47399 1.2732C5.52704 1.43235 5.52704 1.5915 5.52704 1.8037C5.52704 2.122 5.52704 2.44031 5.52704 2.65251C5.52704 2.91776 5.47399 3.0769 5.47399 3.23605C5.47399 3.3952 5.42095 3.50131 5.3679 3.55436C5.31484 3.66046 5.31484 3.71351 5.26179 3.71351C5.26179 3.71351 5.26179 3.76655 5.20873 3.76655C5.15568 3.76655 5.10264 3.81961 4.99654 3.81961C4.94349 3.81961 4.83739 3.76656 4.78434 3.71351C4.67824 3.66046 4.57214 3.55436 4.51909 3.44826C4.41299 3.34216 4.30689 3.183 4.20079 2.9708C4.09469 2.7586 3.93553 2.5464 3.82943 2.2281L3.72334 2.01591C3.67029 1.90981 3.56419 1.6976 3.45809 1.43235C3.35199 1.1671 3.24588 0.954904 3.13978 0.689653C3.08673 0.583553 3.03369 0.530498 2.98064 0.477448H2.92759C2.92759 0.477448 2.87453 0.424403 2.82148 0.424403C2.76843 0.424403 2.71539 0.371349 2.66234 0.371349H0.752528C0.540327 0.371349 0.434228 0.424398 0.381178 0.477448L0.328125 0.530501C0.328125 0.530501 0.328125 0.58355 0.328125 0.6366C0.328125 0.68965 0.328128 0.742697 0.381178 0.848797C0.646429 1.4854 0.964728 2.122 1.28303 2.7586C1.60133 3.34216 1.91963 3.87266 2.13183 4.24401C2.39708 4.61536 2.60928 4.98671 2.87453 5.30501C3.13978 5.62331 3.29893 5.83551 3.35198 5.94161C3.45808 6.04771 3.51113 6.10076 3.56418 6.15381L3.72334 6.31296C3.82944 6.41906 3.98859 6.57821 4.20079 6.73736C4.41299 6.89651 4.67823 7.05566 4.94348 7.21481C5.20873 7.37396 5.52704 7.48007 5.84534 7.58617C6.21669 7.69227 6.53499 7.74532 6.85329 7.69227H7.64904C7.80819 7.69227 7.9143 7.63922 8.0204 7.53312L8.07344 7.48006C8.07344 7.42701 8.12649 7.42701 8.12649 7.37396C8.12649 7.32091 8.12649 7.26787 8.12649 7.16177C8.12649 6.94957 8.12649 6.79042 8.17954 6.63126C8.23259 6.47211 8.2326 6.36602 8.28565 6.25992C8.3387 6.15382 8.39175 6.10076 8.4448 6.04771C8.49785 5.99466 8.5509 5.94161 8.5509 5.94161H8.60394C8.71004 5.88856 8.8692 5.94161 8.9753 6.04771C9.13445 6.15381 9.29359 6.31296 9.39969 6.47211C9.50579 6.63126 9.66496 6.79041 9.87716 7.00261C10.0894 7.21481 10.2485 7.37397 10.3546 7.42702L10.5137 7.53312C10.6198 7.58617 10.726 7.63922 10.8851 7.69227C11.0443 7.74532 11.1503 7.74531 11.2564 7.74531L13.0602 7.69227C13.2193 7.69227 13.3785 7.63922 13.4846 7.58617C13.5907 7.53312 13.6437 7.48006 13.6437 7.37396C13.6437 7.32091 13.6437 7.21482 13.6437 7.16177C13.5376 7.05567 13.5376 7.00261 13.5376 6.94956Z" fill="#7294C7"/>
</svg>
